<svg xmlns="http://www.w3.org/2000/svg" viewBox="0 0 128 128">
  <defs>
    <linearGradient id="gold" x1="0" y1="0" x2="1" y2="1">
      <stop offset="0" stop-color="#fff0a8"/>
      <stop offset="0.28" stop-color="#dca735"/>
      <stop offset="0.62" stop-color="#835014"/>
      <stop offset="1" stop-color="#f4c958"/>
    </linearGradient>
    <mask id="aperture">
      <rect width="128" height="128" fill="white"/>
      <circle cx="64" cy="63" r="40" fill="black"/>
    </mask>
  </defs>
  <path d="M64 3 78 10 94 9 102 23 116 31 115 47 124 61 116 76 116 93 101 101 93 116 77 115 64 125 50 116 34 117 26 102 11 94 12 77 3 63 12 48 11 32 26 23 34 9 50 10Z" fill="#130d0c" stroke="url(#gold)" stroke-width="6" stroke-linejoin="round" mask="url(#aperture)"/>
  <circle cx="64" cy="63" r="47" fill="none" stroke="#f8dc83" stroke-width="3"/>
  <circle cx="64" cy="63" r="42" fill="none" stroke="#8e171e" stroke-width="4"/>
  <path d="m21 87 15-2 8 13-12-5-6 10Zm86 0-15-2-8 13 12-5 6 10Z" fill="#a71924" stroke="#e8b84f" stroke-width="2" stroke-linejoin="round"/>
</svg>
